<svg id="Layer_1" data-name="Layer 1" xmlns="http://www.w3.org/2000/svg" viewBox="0 0 323.71 372.41"><defs><style>.cls-1{fill:none;stroke:#000;stroke-linecap:round;stroke-linejoin:round;stroke-width:0.71px;}</style></defs><path class="cls-1" d="M160.85,1.4l-.2,3.3-.8,3.3-1.5,3.1-1.7,2.2-2.1,2L152,17l-2.9,1.5-3.2,1.2-3.3.9-3.4.7-3.5.5-4.6.5-4.6.2H122m38.9-21.1,1.2-.7,1.2-.7M122,22.5v2.7M322.25,232h0m-1,46.8,1.1-.7,1.2-.6M163.25,0l2.3,4L168,7.7l2.5,3.6,2.2,2.7,2.3,2.7,2.5,2.5,2.8,2.2,2.8,1.9,2.8,1.3,2.7.8,2.7.4,3.5-.3,3.2-.9,3-1.4M163.25,0,163,3.6l-.7,3.5-1.5,3.5-1.7,2.7-2.2,2.4-2.8,2.3-3.2,1.9-3.5,1.5-3.7,1.2-3.7.9-3.7.7-4.9.6-4.8.3-4.6.1m0,0,3.1,2.1,2.5,2.7,1.3,1.9,1,2,.6,2,.5,2.9.1,2.8-.2,2.7-.5,2.8-.9,3.6-1,3.1M1.65,232.1l2.4,3.9,2.6,3.7,2.7,3.5,2.2,2.6,2.5,2.5,2.7,2.5,2.9,2.1,3.1,1.7,3,1.2,3,.7,2.9.2,3.6-.4,3.4-1,3-1.4m.6,38.3-.4.6-.8,2.8-.4,2.6-.1,2.6M1.65,232.1,4,236.2l2.5,4,2.7,3.8,2.2,2.9,2.5,2.9,2.8,2.7,3,2.5,3.1,2,3.1,1.4,3,.9,2.9.2,3.6-.4,3.3-1,3-1.6M281,265.9l-1.6,2.3-2.3,2.2-1,.8m45.2,7.6-3.2-2.1-2.7-2.6-1.5-2.1-1.2-2.5-.8-2.9-.4-2.6-.1-2.9.4-3.3.8-4,.9-3,1.2-3.4,1.6-3.7,2.8-5.9,3.3-5.9m1.2,45.6-3.2-2.3-2.7-2.8-1.5-2.1-1.3-2.4-.9-2.8-.4-2.4-.2-2.7.1-3.2.5-3.7.6-2.9.9-3.3,1.3-3.5,2.5-5.7,3.1-5.7m-8.7,31.4,3.3,4,3.5,5,3.1,5.1M80.75,325.4l-2.4-3.9L76,317.7l-2.5-3.6-2.1-2.7L69,308.8l-2.5-2.6-2.7-2.2-2.9-1.8-2.8-1.4-2.7-.8-2.7-.3-3.5.2-3.2.9-3,1.5m-.1,0-1.2-.7-1.1-.7m40.2,24.5,1.1-.7,1.2-.6M203.25,24.5l-1.1-.6-1.2-.7M283.45,256l-3.2,5.7-2.7,5.6-1.5,3.7-1.2,3.7-.9,3.7-.5,2.7-.2,2.8.1,2.8.5,2.9.6,2,1,2,1.3,1.9,2.5,2.6,3.1,2.2m0,0v2.6M123.15,70.8l.2-3.4.9-3.4,1.5-3.3,1.6-2.4,2.2-2.3,2.5-2,2.9-1.7,3.2-1.4,3.3-1.2,3.5-.9,3.4-.6,4.6-.6,4.6-.4,4.5-.2m-79-.7,3.2,2.1L89,51l.3.6m31.6,17.8.2-3.4.7-3.4,1.5-3.3,1.7-2.4,2.3-2.2,2.7-1.9,3.2-1.7,3.5-1.3,3.7-1,3.7-.7,3.7-.6,4.9-.4,4.7-.1h4.7M10.45,200.6l.1.7.2,2.7-.1,3.2-.5,3.8-.6,2.9-.9,3.2-1.3,3.6-2.6,5.7-3,5.7m281.7,23.7-1.1-.6-1.2-.7M2.85,185.2l3.2,2.1,2.7,2.6.4.5m-8.6-3.9,1.2-.6,1.1-.7M43,209.7l-2.5,1.3-2.6,1-2.8.7-2.4.3-2.6-.1-3-.6L24,211.2l-3.4-1.7-3.3-2.3L14,204.4l-3-3.1-3.8-4.7-3.5-5-3.1-5.1m40.1,21.9-2.4,1.1-2.4.8-2.5.5h-2.1l-2.4-.2-2.5-.6-2.8-1.1-2.8-1.7L18,205l-2.7-2.6-2.7-3-3.5-4.5-3.2-4.7-3-5M219.55,67.6l-1.6-.8-3-.8-2.9-.3-.2.1m-49.8-18.9,6-.1,6-.4,5.9-.7,4.3-.9,4.1-1.1,3.6-1.5,3-1.7,2.5-1.9,1.9-2,1.4-2.1,1.1-2,.8-2.8.5-2.6V24.5m-40.7,22.4,5.4-.2,5.7-.5,5.6-1,4-1.1,3.6-1.3,3.3-1.7,2.7-1.8,2.3-1.9,1.8-2,1.4-2.1,1-2,.9-2.8.5-2.7.2-2.7m0,0-3.2,5.9L195,35l-1.3,3.6M322.25,232l-2.3-4.1-2.5-3.9-2.6-3.9-2.3-2.9-2.5-2.8-2.7-2.8-3-2.5-3.1-2-3.1-1.4-3.1-.8-2.8-.3H292m-9.7,3,3.4,2.2,2.9,2.7,1.6,2.3,1.4,2.5,1,3,.5,2.6.2,3-.1,3.5-.6,4.2-.7,3.1-1.1,3.5-1.4,3.7-2.7,6-3.2,5.9m-40.1,68.3.3-3.4.8-3.2,1.5-3.1,1.7-2.2,2.1-2,2.6-1.7,2.9-1.5,3.1-1.2,3.4-1,3.4-.7,3.5-.5,4.6-.4,4.6-.2,4.5-.1m-1.2-48.3-3.2,6-2.7,6-1.4,4.1-1.3,4-.8,4.1-.4,3.1v3.2l.3,3.2.9,3.3.9,2.2,1.2,2.2,1.6,2,2.8,2.7,3.3,2.2m-29.2-57.4,5.3,5.5,5.7,3.9,5.2,1.7,4.5.1,3.8-.8,3.5-1.6M83.05,324.1l.2-3.4.9-3.2,1.5-3.1,1.6-2.2,2.2-2,2.5-1.7,2.9-1.5,3.2-1.2,3.3-.9,3.4-.8m-63-47.5,3.1,2.2,2.6,2.6,1.8,2.9,1,3,.5,2.9.1,2.8-.7,5.5-1.4,5.5-2.2,5.6-5.9,11.3m42.4,23.2-2.5-4.1L78,316.2l-2.8-3.8-2.3-2.8-2.7-2.8-2.9-2.7-3.2-2.3-3.4-1.9-3.3-1.3-3.3-.7-3-.2-3.8.5-3.5,1.2-3.1,1.5m240.5-46.6.5-5.2,1.4-3.7m-.8-35.1,2.9,2.1,2.5,2.6,1.4,2.1,1,2.3.8,2.7.3,2.3.1,2.6-.3,3.1-.8,3.6-.8,2.8-1.1,3.1-1.4,3.5-2.6,5.6-3.1,5.8M80.75,47.7l-.3,3.3-.8,3.3-1.5,3.1-1.7,2.2-2.1,1.9-2.6,1.8-2.9,1.4-3.1,1.2-3.4,1-3.4.7-3.5.5-4.6.5-4.6.2h-4.5m0,0v2.7m39-23.8,1.1-.7,1.2-.7M41.75,253.9v2.6M241.05,47.7l-.2,3.3-.9,3.3-1.5,3.1-1.6,2.2-2.2,1.9-2.5,1.8-2.9,1.4-3.2,1.2-3.3,1-3.5.7-3.4.5-4.7.5-4.5.2h-4.5m38.9-21.1,1.2-.7,1.1-.7m78.9,93.1h0m-1,46.8,1.1-.6,1.2-.7m-82.3,140.3,1.1-.7,1.2-.6M202.05,71.4,199,72.9l-3.3,1.1-3.4.3M41.75,254l2.4-1.3,2.5-.9,2.6-.6,2.2-.2,2.5.2,2.8.6,3,1.2,3.1,1.8,3.1,2.4,3,3,2.9,3.2,3.6,4.8,3.3,5,3.1,5.2M71,218.4v.3l.6,3.2.8,2.1.7,1.3m-14.2,29.8-2.8.6-4.9.5-4.7.3-4.7.1m0,0,2.5-1.2,2.5-.8,2.7-.6,2.3-.2,2.5.1,2.7.6,2.9,1,3,1.5,3,2.1,3,2.5,2.9,2.8,3.7,4.4,3.3,4.7,3.1,4.9m39-208.9-3,1.4-3.2.9-3.5.2-2.7-.3-2.8-.8-2.8-1.4-2.8-1.8-2.7-2.3-2.6-2.5-2.3-2.6-2.1-2.7L87.75,54l-2.4-3.7-2.3-4m0,0-.2,3.6-.8,3.5-1.5,3.5L79,59.5,76.65,62l-2.8,2.3-3.2,1.8-3.5,1.6-3.6,1.2-3.8.9-3.7.6-4.9.6-4.7.4-4.7.1m0,0,3.1,2.1,2.5,2.7,1.3,1.9,1,2,.6,2,.5,2.8.1,2.9-.2,2.7-.5,2.8-.9,3.6-1,3.1M1.65,139.5l2.4,3.9,2.6,3.7,2.7,3.5,2.2,2.6,2.5,2.6,2.7,2.4,2.9,2.1,3.1,1.7,3,1.2,3,.7,2.9.2,3.6-.4,3.4-.9,3-1.5m40.2,117.1,2.4,3.9,2.6,3.6,2.7,3.6,2.2,2.6,2.5,2.5L97,297l2.9,2.2,3,1.7,3.1,1.2,3,.7,2.9.2,3.6-.4,3.4-1,3-1.4m-40-21.8h0m200.4-68.1-3.1,1.5-3.3,1-3.4.4M243.35,46.3l2.4,4,2.4,3.7,2.5,3.6,2.1,2.7,2.4,2.7,2.5,2.5,2.7,2.2,2.8,1.8,2.9,1.4,2.7.8,2.7.4,3.5-.3,3.2-.9,3-1.4m-37.8-23.2-.2,3.6-.7,3.5L241,56.9l-1.7,2.6-2.2,2.5-2.8,2.3-3.2,1.8-3.5,1.6-3.7,1.2-3.7.9-3.7.6-4.9.6-4.8.4-4.6.1m0,0,3.1,2.1,2.5,2.7,1.8,2.9,1.1,3,.4,2.9.1,2.8-.6,5.5-1.5,5.5-.5,1.3m33.7,178.1h0m1.1-46.8,3.2,2.1,2.8,2.7,1.4,2,1.1,2,.7,2.1.6,3.2.1,3.1-.2,3-.5,3-1,4-1.3,4-1.7,3.9-2.9,5.9-3.4,5.8m-1.2-45.5,3.1,2.2,2.7,2.7,1.4,2,1.1,2.1.8,2,.8,3.1.3,2.9-.1,2.9-.3,2.8-.7,3.7-1.1,3.8-1.3,3.8-2.5,5.7-3,5.8m-200-78.7-.4.7-1.1,4-.2,3.9M1.65,139.5,4,143.6l2.5,4,2.7,3.8,2.2,2.9,2.5,2.9,2.8,2.7,3,2.5,3.1,2,3.1,1.5,3,.8,2.9.2,3.6-.4,3.3-1,3-1.5m80.7,174.5-.3.6-.8,2.8-.5,2.6v2.6m-38.9-68.7,2.3,4.1,2.5,3.9,2.6,3.9,2.3,2.9,2.5,2.8,2.7,2.8,3,2.5,3.1,2,3.1,1.4,3.1.8,2.8.3,3.6-.4,3.4-1,3-1.6m158.9-129.4-1.2,2-3.6,3.2m45.3,7.6-3.2-2-2.7-2.7-1.5-2.1-1.2-2.5-.8-2.9-.4-2.5-.1-2.9.4-3.4.8-4,.9-3,1.2-3.4,1.6-3.7,2.8-5.8,3.3-5.9M200.85,312.2l-1.7,2.3-2.3,2.2-1,.8m45.2,7.6-3.2-2.1-2.7-2.6-1.5-2.1-1.2-2.5-.8-2.9-.4-2.6-.1-2.9.4-3.3.8-4,.9-3,1.3-3.4,1.5-3.7,2.8-5.9,3.3-5.9m81.4-93.3-3.2-2.3-2.7-2.8-1.5-2.1-1.3-2.4-.9-2.8-.4-2.4-.2-2.7.1-3.2.5-3.7.6-2.9.9-3.2,1.3-3.6,2.5-5.7,3.1-5.7m-8.7,31.4,3.3,4,3.5,5,3.1,5.1m-80.2,138.9-3.2-2.3-2.7-2.8-1.5-2.1-1.2-2.5-.9-2.7-.5-2.4-.2-2.7.1-3.2.5-3.7.6-2.9.9-3.3,1.3-3.5,2.5-5.7,3.1-5.7m1.2,45.5-4.8-7.7-5.1-6.4m-31.1-241-.3,1.3-.2,1.3m.2-2.5-6,.2-6,.5-5.9.9-4.4,1.1-4,1.5-3.6,1.7-3.1,2-2.4,2.1-1.9,2.2-1.5,2.2-1,2.3-.9,2.9-.4,2.8-.1,2.8m41.2-22.5-5.8.1-5.7.4-5.6.8-4,.8-3.7,1.1-3.2,1.3-2.8,1.6-2.2,1.7-1.8,1.8-1.4,1.9-1,2-.9,2.6-.5,2.5-.2,2.5M80.75,232.8l-2.4-3.9L76,225.1l-2.5-3.6-2.1-2.7L69,216.2l-2.5-2.5-2.7-2.3-2.9-1.8-2.8-1.3-2.7-.9-2.7-.3-3.5.2-3.2,1-3,1.4m-.2.1-1-.7-1.1-.7M161,371.7l-2.4-4-2.4-3.7-2.5-3.6-2.2-2.7-2.3-2.6-2.5-2.6-2.8-2.2-2.8-1.8-2.8-1.4-2.8-.8-2.7-.3-3.4.2-3.2.9-3,1.5m-.1-.1-1.2-.6-1.1-.7M161,371.7l1.1-.7,1.2-.6M283.45,70.8l-1.2-.6-1.1-.7m-158.1,1.3-1.2-.7-1.1-.7m162.7,94-3.2,5.7-2.7,5.6-1.5,3.7-1.2,3.7-.9,3.7-.5,2.7-.2,2.8.1,2.8.5,2.9.6,2,1,2,1.3,1.9,2.5,2.6,3.1,2.2m-.1,0v2.7m-78.9,91.9-3.2,5.7-2.8,5.6-1.5,3.7-1.2,3.7-.9,3.6-.4,2.8-.2,2.7V333l.5,2.9.7,2,.9,1.9,1.3,2,2.5,2.6,3.1,2.1m0,0v2.7M.55,93.9l1.2-.6,1.1-.7M43,117.1l-1.2-.7-1.1-.6M2.85,92.6l3.2,2.1,2.7,2.6.4.6m31.5,17.9-2.3,1.1-2.5.8-2.5.5-2.1.1-2.4-.2-2.5-.7-2.7-1.1-2.8-1.7L18,112.5l-2.7-2.7-2.7-3-3.5-4.4-3.2-4.8-3-5m37.8,23.2.2-3.5.8-3.4,1.4-3.3,1.7-2.4L47,101l2.8-1.9L53,97.4l3.5-1.3,3.7-1,3.7-.8,3.7-.5,4.9-.4,4.7-.1h4.7M1.75,139.6l6.9-.1L16,139l7.5-1.2,3.7-1,3.4-1.4,3.2-1.6,2.8-1.9,2.3-2.2,1.6-2.4M43,117.1l.3-3.4.8-3.4,1.5-3.3,1.6-2.4,2.2-2.3,2.5-2,2.9-1.7L58,97.1l3.3-1.1,3.5-.9,3.4-.6,4.6-.7,4.6-.3,4.5-.2M43,117.1l-2.5,1.3-2.6,1-2.8.7-2.3.3-2.7-.1-2.9-.6L24,118.6l-3.3-1.7-3.4-2.2-3.2-2.8L11,108.7,7.15,104l-3.5-4.9L.55,93.9m9.9,14.2.1.6.2,2.8-.1,3.1-.5,3.8-.6,2.9-.9,3.3-1.3,3.5-2.6,5.7-3,5.8M203.25,117l.3-3.4.8-3.3L206,107l1.6-2.5,2.2-2.2,2.5-2,2.9-1.8,3.1-1.4,3.4-1.1,3.4-.9,3.5-.6,4.6-.7,4.6-.3,4.4-.2m-78.9-.7,3.1,2.1,2.8,2.7.4.6M201,115.7l.3-3.5.7-3.3,1.5-3.3,1.7-2.4,2.2-2.2,2.8-2,3.2-1.6,3.5-1.3,3.6-1,3.8-.8,3.7-.5,4.9-.4,4.7-.1h4.6m-38.9,208.8-1.1-.7-1.2-.6M83.05,231.5l3.2,2.1,2.7,2.6.4.6m194.1-73.6-1.1-.6-1.2-.7M80.75,232.8l1.1-.6,1.2-.7m40,24.5-2.4,1.3-2.6,1-2.8.7-2.4.2-2.6-.1-3-.5-3.2-1.1-3.3-1.7-3.3-2.3-3.3-2.8-3.1-3.2-3.8-4.6-3.4-5-3.1-5.1m40,21.8-2.3,1.2-2.4.8-2.6.4-2.1.1-2.3-.2-2.6-.6-2.7-1.1-2.8-1.7-2.8-2.2-2.8-2.6-2.7-3-3.4-4.5-3.2-4.8-3-4.9m239.2-92.1-2.3-4.1-2.5-3.9-2.6-3.9-2.3-2.8-2.5-2.9-2.7-2.8-3-2.4-3.1-2-3.1-1.5-3.1-.8-2.8-.3-.3.1m-49.8-18.9,6.1-.1,5.9-.4,6-.7,4.3-.9,4.1-1.1,3.6-1.5,3-1.7,2.5-1.9,1.9-2,1.4-2.1,1.1-2.1.8-2.7.4-2.6.1-2.6m-1.1,44.2,3.4,2.2,2.9,2.8,1.6,2.2,1.4,2.6,1,3,.5,2.6.2,2.9-.1,3.5-.6,4.2-.7,3.1-1.1,3.5-1.4,3.7-2.7,6-3.2,5.9m-2.3-1.5.5-5.1,1.4-3.8m-.8-35.1,2.9,2.1,2.5,2.6,1.4,2.1,1,2.3.8,2.7.3,2.3.1,2.7-.3,3-.8,3.6-.8,2.8-1.1,3.2-1.4,3.4-2.6,5.7-3.1,5.7m-38.5-68.7,5.4-.2,5.7-.5,5.6-1,3.9-1.1L267,89l3.3-1.6,2.7-1.8,2.3-1.9,1.8-2,1.4-2.1,1-2.1.9-2.7.5-2.7.2-2.7m0,0-3.2,5.9-2.7,6-1.3,3.6m-142.3,27.2h.1l2.5.2,2.8.6,2.3,1M81.85,93.2l6-.1,6-.4,5.9-.7,4.3-.9,4.1-1.1,3.6-1.5,3-1.7,2.5-1.9,1.9-2,1.5-2.1,1-2.1.9-2.7.4-2.6.1-2.6m40.2,299.6.2-3.4.8-3.2,1.6-3.1,1.6-2.2,2.2-2,2.5-1.8,2.9-1.4,3.2-1.2,3.3-1,3.5-.7,3.4-.5,4.7-.4,4.5-.2,4.5-.1M201,300.9l-3.1,6-2.7,6-1.5,4.1-1.2,4-.9,4.1-.4,3.1v3.1l.3,3.3.9,3.3.9,2.2,1.2,2.1,1.6,2.1,2.8,2.7,3.3,2.2M173,291.8l5.4,5.5,5.6,3.9,5.3,1.7,4.4.1,3.8-.8,3.5-1.6m-79,2.3,3.1,2.2,2.5,2.6,1.8,2.9,1.1,3,.5,2.9.1,2.8-.7,5.5-1.5,5.5-2.1,5.6-5.9,11.3m42.4,23.2-2.5-4.1-2.6-3.9-2.8-3.7-2.4-2.8-2.6-2.8-3-2.7-3.1-2.4-3.4-1.8-3.3-1.3-3.3-.7-3.1-.2-3.8.5-3.4,1.1-3.1,1.6m-38.5-254,5.3-.2,5.7-.5,5.6-1,4-1.1,3.7-1.4,3.2-1.6,2.8-1.8,2.2-1.9,1.8-2,1.4-2.1,1-2.1.9-2.7.6-2.7.2-2.7m0,0-3.2,5.9-2.8,6-1.3,3.6m88.6,169,3.4,2.2,2.9,2.7,1.7,2.3,1.3,2.5,1,3,.5,2.6.2,3-.1,3.5-.6,4.1-.7,3.2-1.1,3.5-1.4,3.7-2.7,5.9-3.2,6m40.1-70.6.3-3.4.8-3.2,1.6-3.1,1.6-2.2,2.2-2,2.5-1.7,2.9-1.5,3.2-1.2,3.3-.9,3.5-.7,3.5-.5,4.6-.5,4.5-.2,4.5-.1m-1.2-48.3-3.2,6-2.7,6.1-1.4,4-1.3,4.1-.8,4-.4,3.1v3.2l.3,3.2.9,3.3.9,2.2,1.2,2.2,1.6,2,2.8,2.7,3.3,2.2m-29.2-57.4,5.3,5.5,5.7,3.9,5.2,1.7,4.5.1,3.8-.8,3.5-1.6M83.05,231.5l.3-3.3.8-3.3,1.5-3.1,1.7-2.2,2.1-2,2.5-1.7,2.9-1.5,3.2-1.2,3.4-.9,3.4-.7m-63.1-47.5,3.1,2.1,2.6,2.6,1.8,3,1,2.9.5,2.9.1,2.9-.7,5.5-1.4,5.5-2.2,5.5-5.9,11.4m42.4,23.1-2.5-4.1L78,223.6l-2.8-3.8-2.3-2.8-2.7-2.8-2.9-2.7-3.2-2.3-3.4-1.9-3.3-1.3-3.3-.7-3-.2-3.8.6-3.5,1.1-3.1,1.6M201,300.6l.5-5.2,1.5-3.7m-.9-35.2,3,2.2,2.4,2.6,1.4,2.1,1.1,2.3.7,2.7.3,2.3.1,2.6-.3,3.1-.7,3.6-.8,2.8-1.1,3.1-1.4,3.5-2.7,5.6-3.1,5.7m-79-.6v2.7M41.75,161.3v2.6M160.85,94l-.2,3.3-.8,3.2-1.5,3.2-1.7,2.1-2.1,2-2.6,1.8-2.9,1.4-3.2,1.2-3.3,1-3.4.7-3.5.5-4.6.4-4.6.3H122M160.85,94l1.2-.7,1.2-.7m77.7,140,1.2-.6,1.1-.7m-81.2,93.4h0M282.15,115v2.6M122,300.2l2.4-1.2,2.4-1,2.7-.6,2.2-.1,2.5.2,2.8.6,3,1.2,3.1,1.8,3.1,2.4,3,3,2.9,3.3,3.6,4.7,3.3,5.1,3.1,5.1m-1.2-45.6,3.2,2.2,2.6,2.7,1.5,2,1.1,2.1.8,2,.7,3.1.3,2.9V299l-.3,2.8-.8,3.8-1.1,3.7-1.4,3.8-2.4,5.8-3,5.8m-10.9-60v.3l.6,3.1.8,2.2.6,1.3m129.1-153.9-3.1,1.5-3.3,1-3.4.4m9.8-2.8-5.8.1-5.7.4-5.6.8-4,.8-3.7,1.1-3.2,1.3-2.8,1.6-2.3,1.7-1.7,1.8-1.4,1.9-1,2-1,2.5-.5,2.6-.2,2.5M139.05,301.4l-2.8.5-4.9.6-4.8.3-4.6.1m80.1-46.4-3.1,1.6-3.3,1-3.4.4m-29,18.3,3.2,2.1,2.7,2.7,1.4,2,1.1,2,.7,2.1.6,3.2.1,3.1-.2,3-.5,3.1-1,4-1.3,3.9-1.7,4-2.9,5.9-3.4,5.8M122,302.9l2.5-1.2,2.5-.9,2.7-.5,2.3-.2,2.4.1,2.8.6,2.9,1,3,1.5,3.1,2.1,3,2.5,2.9,2.9,3.6,4.3,3.3,4.7,3,4.8M41.75,161.4l2.4-1.3,2.5-.9,2.6-.6,2.2-.2,2.5.2,2.8.6,3,1.2,3.1,1.8,3.1,2.5,3,2.9,2.9,3.3,3.6,4.7,3.3,5.1,3.1,5.1m-23-23.2-2.8.5-4.9.5-4.7.4-4.7.1m80.1-46.4-3.1,1.5-3.3,1-3.3.4m-70.4,43.5,2.5-1.2,2.5-.9,2.7-.6,2.3-.2,2.5.2,2.7.5,2.9,1,3,1.5,3,2.1,3,2.5,2.9,2.9,3.7,4.3,3.3,4.7,3.1,4.9m159.2-45.6,1.2-.6,1.1-.7m-1.1,46.8v.1m1.1-46.9,3.2,2.2,2.8,2.6,1.4,2,1.1,2,.7,2.1.6,3.2.1,3.1-.2,3-.5,3-1,4-1.3,4-1.7,3.9-2.9,5.9-3.4,5.9m-160.4,0,2.4,3.9,2.6,3.7,2.7,3.5,2.2,2.6,2.5,2.5,2.7,2.5,2.9,2.1,3,1.7,3.1,1.2,3,.7,2.9.2,3.6-.4,3.4-1,3-1.4m-40-21.8h0m159.2-45.6,3.1,2.2,2.7,2.7,1.4,2,1.1,2.1.8,2,.8,3.1.3,2.9-.1,2.9-.3,2.8-.7,3.7-1.1,3.8-1.3,3.8-2.5,5.7-3,5.8m40-70.6-6,.1-6,.5-6,1-4.3,1.1-4,1.4-3.6,1.8-3.1,2-2.4,2.1-2,2.2-1.4,2.2-1,2.3-.9,2.9-.4,2.8-.1,2.7M201,115.8l-3,1.4-3.2.9-3.4.2-2.7-.3-2.8-.8-2.8-1.4-2.8-1.8-2.8-2.3-2.5-2.5-2.3-2.6-2.1-2.7-2.6-3.6-2.4-3.8-2.3-3.9m0,0-.3,3.5-.7,3.6-1.5,3.5-1.7,2.6-2.2,2.5-2.8,2.2-3.2,1.9-3.5,1.6-3.7,1.2-3.7.9-3.7.6-4.9.6-4.8.3-4.6.2m0,0,3.1,2.1,2.5,2.6,1.8,3,1.1,2.9.5,2.9.1,2.9-.7,5.5-1.5,5.5-.5,1.2m-5.9,99.5-.4.6-1.1,4.1-.2,3.9m-38.9-68.7,2.3,4.1,2.5,4,2.6,3.8,2.3,2.9,2.5,2.9,2.7,2.7,3,2.5,3.1,2,3.1,1.4,3.1.9,2.8.2,3.6-.4,3.4-1,3-1.6m78.7,9.5-1.2,2-3.5,3.2m45.2,7.6-3.2-2.1-2.7-2.6-1.5-2.1-1.2-2.5-.8-2.9-.4-2.5-.1-2.9.4-3.4.8-4,.9-3,1.3-3.4,1.5-3.7,2.8-5.8,3.3-5.9m1.2,45.5-3.2-2.3-2.7-2.8L236,224l-1.2-2.4-.9-2.8-.5-2.4-.2-2.7.1-3.2.5-3.7.6-2.9.9-3.3,1.3-3.5,2.5-5.7,3.1-5.7m1.2,45.5-4.8-7.6-5.1-6.5M122.15,115l-.2,1.3-.3,1.3m.3-2.5-6.1.1-6,.5-5.9,1-4.3,1.1-4.1,1.4L92,121l-3,2-2.5,2.1-1.9,2.2-1.4,2.2-1.1,2.3-.8,2.9-.4,2.8-.1,2.7M122,117.8l-5.9.1-5.7.4-5.6.8-4,.8-3.6,1.1-3.3,1.3-2.7,1.6-2.3,1.7-1.8,1.8-1.4,1.9-1,2-.9,2.5-.5,2.6-.2,2.5M161,279.1l-2.4-3.9-2.4-3.8-2.5-3.6-2.2-2.7-2.3-2.6-2.5-2.6-2.8-2.2-2.8-1.8-2.8-1.4-2.8-.8-2.7-.3-3.4.2-3.2.9-3,1.5m-.3.1-.9-.7-1.2-.8m40.1,24.5,1.2-.7,1.2-.6M203.15,117l-1.1-.6-1.2-.7m2.5,94-3.2,5.7-2.8,5.6-1.5,3.7-1.2,3.7-.9,3.7-.4,2.7-.2,2.8v2.8l.5,2.9.7,2,.9,2,1.3,1.9,2.5,2.6,3.1,2.2m-.1,0v2.7M80.75,140.2l1.1-.6,1.2-.7m40.1,24.5-1.2-.7-1.1-.7m-37.8-23.1,3.2,2.1,2.7,2.7.4.5m31.5,17.8-2.4,1.2-2.4.8-2.5.5h-2.1l-2.4-.2-2.5-.6-2.8-1.1-2.8-1.7-2.8-2.2-2.8-2.6-2.7-3-3.4-4.5-3.2-4.7-3-5m37.8,23.1.2-3.4.7-3.4,1.5-3.3,1.7-2.4,2.2-2.2,2.8-2,3.2-1.6,3.5-1.3,3.6-1,3.8-.8,3.7-.5,4.9-.4,4.7-.2,4.7.1m-38.9,23.8.2-3.4.8-3.4,1.6-3.3,1.6-2.4,2.2-2.3,2.5-2,2.9-1.8,3.1-1.4,3.4-1.1,3.4-.9,3.5-.6,4.6-.7,4.6-.3,4.5-.2m-38.9,23.8-2.5,1.3-2.6,1-2.8.7-2.4.3-2.6-.1-2.9-.6-3.2-1.1-3.4-1.7-3.3-2.3-3.3-2.7-3-3.2-3.8-4.7-3.5-4.9-3.1-5.2m122.5,69.3-1.1-.6-1.2-.7m-38.9-68.7,6-.1,6-.4,5.9-.7,4.3-.9,4.1-1.1,3.6-1.5,3-1.7,2.5-1.9,1.9-2,1.4-2.1,1.1-2.1.8-2.7.5-2.7V117m-1.1,44.3,3.4,2.2,2.9,2.7,1.7,2.3,1.3,2.5,1,3,.5,2.6.2,3-.1,3.5-.6,4.2-.7,3.1-1.1,3.5-1.4,3.7-2.7,6-3.2,5.9M201,208l.5-5.2,1.5-3.7m-.9-35.1,3,2.1,2.4,2.6,1.4,2.1,1.1,2.3.7,2.7.3,2.3.1,2.6-.3,3.1-.7,3.6-.8,2.8-1.1,3.1-1.4,3.5-2.7,5.6-3.1,5.8m-38.5-68.7,5.4-.2,5.7-.5,5.6-1,4-1.1,3.6-1.4,3.3-1.6,2.7-1.8,2.3-1.9,1.8-2,1.4-2.1,1-2.1.9-2.7.5-2.7.2-2.7m0,0-3.2,5.9-2.7,6-1.3,3.6m-30.4,146.6.3-3.4.8-3.2,1.5-3.1,1.7-2.2,2.1-2,2.5-1.7,2.9-1.5,3.2-1.2,3.4-.9,3.4-.7,3.5-.6,4.6-.4,4.5-.2,4.5-.1M201,208.3l-3.1,6-2.7,6-1.5,4.1-1.2,4-.9,4.1-.4,3.1v3.2l.3,3.2.9,3.3.9,2.2,1.2,2.2,1.6,2,2.8,2.7,3.3,2.2M173,199.2l5.4,5.5,5.6,3.9,5.3,1.7,4.4.1,3.8-.8L201,208m-79,2.3,3.1,2.2,2.5,2.6,1.8,2.9,1.1,3,.5,2.9.1,2.8-.7,5.5-1.5,5.5-2.1,5.6-5.9,11.3m42.4,23.2-2.5-4.1-2.6-3.8-2.8-3.8-2.4-2.8-2.6-2.8-3-2.7-3.2-2.3-3.3-1.9-3.3-1.3-3.3-.7-3.1-.2-3.8.5-3.4,1.2-3.1,1.5m1.1-47v2.6m40.1,21.9h0M202,161.2v2.7m-41.1,22.6,1.2-.6,1.2-.7M122,207.7l2.4-1.3,2.4-.9,2.7-.6,2.2-.2,2.5.2,2.8.6,3,1.2,3.1,1.8,3.1,2.5,3,2.9,2.9,3.3,3.6,4.8,3.3,5,3.1,5.1m-1.2-45.6,3.2,2.2,2.6,2.7,1.5,2,1.1,2.1.8,2.1.7,3,.3,3v2.8l-.3,2.8L170,213l-1.1,3.7-1.4,3.8-2.4,5.8-3,5.8m40-70.7-6,.1-6,.5-5.9,1-4.4,1.1-4,1.4-3.6,1.8-3.1,2-2.4,2.1-1.9,2.2-1.5,2.2-1,2.2-.9,2.9-.4,2.9-.1,2.7m-21.8,22.4-2.8.5-4.9.5-4.8.3-4.6.1m80.1-46.3-3.1,1.5-3.3,1-1.8.2m8.2-2.7-5.8.2-5.7.4-5.6.7-4,.9-3.7,1.1-3.2,1.3-2.8,1.6-2.2,1.7-1.8,1.8-1.4,1.9-1,1.9-.9,2.6-.5,2.6-.2,2.5m0,0,3.2,2.1,2.7,2.7,1.4,2,1.1,2.1.7,2,.6,3.2.1,3.1-.2,3.1-.5,3-1,4-1.3,3.9-1.7,4-2.9,5.9-3.4,5.8M122,210.3l2.5-1.2,2.5-.8,2.7-.6,2.3-.2,2.4.1,2.8.6,2.9,1,3,1.5,3.1,2.1,3,2.5,2.9,2.9,3.6,4.3,3.3,4.7,3,4.8m-41.3-58.4.6-1,.8-1.1.3-.4.3-.5.6-.6.6-.6.7-.4.7-.4,1.4-.6,1.3-.5,1.6-.3,1.5-.1h1.7l1.9.2,2.1.4,2.3.7,2.4,1,2.3,1.4,2.3,1.5,4.2,3.8,3.6,4.2M51.45,250.9h-1.2l-1.4-.1-.8-.1-.7-.2-1-.5-1.4-.8-1.7-1.4-1.9-2.1-1.5-2.2-.7-1.6-.7-1.8-.5-2-.4-1.9-.1-1.5V233l.1-2,.3-2.6.8-3.4.7-2.3,1-2.6.2-.3M32,259.5h1.1l1.5.1.8.1.7.3,1,.4,1.4.8,1.7,1.4,1.9,2.1,1.4,2.3.8,1.6.7,1.7.5,2,.3,1.9.2,1.5v1.7l-.1,2-.3,2.6-.8,3.4-.7,2.3L43,290.3l-.8,1.9m238.9-26.3.5-1,.8-1.2.3-.4.3-.4.6-.6.6-.6.7-.4.7-.5,1.4-.6,1.4-.4,1.5-.3,1.5-.2h1.7l1.9.2,2.1.5,2.3.7,2.4,1,2.4,1.3,2.2,1.6,4.2,3.8,3.6,4.2.8,1m-31.8-28.8-.1.3-.8,1.2-.3.4-.4.4-.5.6-.7.6-.6.4-.7.4-1.4.6-1.4.5-1.5.3-1.5.2h-1.7l-1.9-.2-2.1-.5-2.3-.7-2.4-1-2.4-1.3-2.2-1.6-4.2-3.8-3.6-4.2-.3-.4M203,106l-.1.2-.8,1.2-.3.4-.3.4-.6.7-.6.5-.7.5-.7.4-1.4.6-1.4.4-1.5.3-1.5.2h-1.7l-1.9-.2-2.1-.5-2.3-.7-2.4-1-2.3-1.3-2.3-1.6-4.2-3.7-3.6-4.3-.3-.3m-47.1,146.6-.2.3-.8,1.2-.3.4-.3.4-.6.6-.6.6-.7.4-.7.4-1.3.6-1.4.5-1.6.3-1.5.2h-1.6l-2-.2-2.1-.5-2.2-.7-2.4-1-2.4-1.3-2.3-1.6-4.2-3.8-3.6-4.2-.3-.4m30.9-156,.6-1,.8-1.1.3-.4.3-.5.6-.6.6-.5.7-.5.7-.4,1.4-.6,1.3-.5,1.6-.3,1.5-.1h1.7l1.9.2,2.1.4,2.3.7,2.4,1.1,2.3,1.3,2.3,1.5,4.2,3.8,3.6,4.2m-30.6-28.4-.6,1-.7,1.1-.3.4-.4.4-.6.7-.6.5-.6.5-.8.4-1.3.6-1.4.4-1.6.4-1.4.1h-1.7l-1.9-.2-2.2-.4-2.2-.8-2.4-1-2.4-1.3-2.3-1.6-4.2-3.7-3.6-4.3-.7-1M40.55,219.9l.5-1,.8-1.1.3-.5.3-.4.6-.6.6-.6.7-.4.7-.4,1.4-.6,1.4-.5,1.5-.3,1.5-.2h1.7l1.9.3,2.1.4,2.3.7,2.4,1,2.4,1.3,2.2,1.6,4.2,3.8,3.6,4.2m-30.6-28.4-.5.9-.8,1.2-.3.4-.4.4-.5.6-.7.6-.6.4-.7.5-1.4.6-1.4.4-1.5.3-1.5.2h-1.7l-1.9-.2-2.1-.5-2.3-.7-2.4-1L20,201l-2.2-1.6-4.2-3.8L10,191.4l-.8-1M211.85,65.7h-2.6l-.8-.2-.8-.2-1-.4-1.3-.9-1.8-1.4-1.8-2.1-1.5-2.2-.8-1.6-.6-1.8-.6-2-.3-1.8-.1-1.6-.1-1.6.1-2,.3-2.6.8-3.5.8-2.2,1-2.7.8-1.8m-.7,186.8.6-1,.7-1.1.4-.5.3-.4.6-.6.6-.6.6-.4.8-.4,1.3-.6,1.4-.5,1.6-.3,1.4-.2h1.7l2,.3,2.1.4,2.2.7,2.4,1L224,217l2.3,1.6,4.2,3.8,3.6,4.2M192.25,74.4h2.6l.8.2.8.2,1,.4,1.3.9,1.7,1.4,1.9,2.1,1.5,2.2.8,1.6.6,1.8.6,2,.3,1.8.1,1.6.1,1.6-.1,2-.4,2.6-.8,3.5-.7,2.2-1,2.7-.6,1.3M292,204.6h-1.1l-1.5-.1-.8-.1-.7-.2-1-.5-1.4-.8-1.7-1.4-1.9-2.1-1.4-2.2-.8-1.6-.7-1.8-.5-2-.3-1.8-.2-1.6v-1.7l.1-2,.3-2.5.8-3.5.7-2.2,1.1-2.7.7-1.6m-9.2,41h1.2l1.4.1.8.1.8.3.9.4,1.4.8,1.7,1.5,1.9,2,1.5,2.3.7,1.6.7,1.7.5,2,.4,1.9.1,1.5v3.7l-.4,2.6-.8,3.4-.7,2.3-1,2.7-.6,1.3M170.25,98.8l-.1-.2-.6-1.4-.3-1.7-.1-1.7.1-1.7.2-1.3.3-1.6.7-1.7,1-1.8,1.4-1.7,1.5-1.5,1.7-1.4,2.4-1.7,2.3-1.4,2.7-1.2,2.2-.8,2.1-.6,2.1-.5,2.5-.4,1.5-.1M73,225.3v.1l.8,1.4.6,1.5.4,1.6v1.8l-.1,1.6-.2,1.4-.3,1.5-.6,1.7-1.1,1.9-1.4,1.7-1.5,1.5-1.7,1.4-2.3,1.6-2.4,1.4-2.7,1.2-2.1.8-2.1.6-2.2.5-2.5.4-1.6.2m40.1-13.4-.1-.2-.6-1.5-.3-1.6-.1-1.8.1-1.6.2-1.4.4-1.5.6-1.7,1-1.9,1.4-1.7,1.6-1.5,1.6-1.4,2.4-1.6,2.4-1.4,2.7-1.2,2.1-.8,2.1-.6,2.2-.5,2.4-.4,1.5-.1m18,83.9h-1.2l-1.4-.1-.8-.1-.8-.3-.9-.4-1.4-.8-1.7-1.4-1.9-2.1-1.5-2.2-.8-1.6-.6-1.8-.6-2-.3-1.9-.1-1.5-.1-1.7.1-2,.4-2.6.8-3.4.7-2.3,1-2.6.1-.3M51.45,158.3h-1.2l-1.4-.1-.8-.1-.7-.2-1-.4-1.4-.9-1.7-1.4-1.9-2.1-1.5-2.2-.7-1.6-.7-1.8-.5-2-.4-1.8-.1-1.6v-1.7l.1-2,.3-2.5.8-3.5.7-2.2,1-2.7.2-.3M251.15,239v-.1l-.8-1.4-.6-1.5-.3-1.6-.1-1.8.1-1.6.2-1.4.3-1.5.6-1.7,1.1-1.9,1.4-1.7,1.5-1.5,1.7-1.4,2.3-1.6,2.4-1.4,2.7-1.2,2.1-.8,2.1-.6,2.2-.5,2.5-.4,1.5-.1M153.15,86.5h0l.8,1.4.6,1.5.3,1.7.1,1.7-.1,1.6-.2,1.4-.3,1.5-.7,1.8-1,1.8-1.4,1.7-1.5,1.5-1.7,1.4-2.4,1.7-2.3,1.3-2.7,1.3-2.1.7-2.1.7-2.2.5-2.5.3-.9.1m102.7,113.7.6,1,.6,1.5.3,1.6.1,1.8-.1,1.6-.2,1.4-.4,1.5-.6,1.7-1,1.9-1.4,1.7-1.6,1.5-1.6,1.4-2.4,1.6-2.4,1.4-2.6,1.2-2.2.8-2.1.6-2.2.5-2.4.4-.9.1M32,166.9h1.1l1.5.1.8.2.7.2,1,.4,1.4.8,1.7,1.5,1.9,2,1.4,2.3.8,1.6.7,1.7.5,2,.3,1.9.2,1.6v1.6l-.1,2-.3,2.6-.8,3.4-.7,2.3L43,197.8l-.8,1.8m70,106.2h1.1l1.4.1.8.1.8.2,1,.5,1.3.8,1.8,1.4,1.9,2.1,1.4,2.2.8,1.6.6,1.8.6,2,.3,1.9.2,1.5v1.7l-.1,2-.3,2.6-.8,3.4-.8,2.3-1,2.6-.8,1.8m158.5-164.9.7-1.2.8-1.1.3-.5.3-.4.6-.6.6-.6.7-.4.7-.4,1.4-.6,1.4-.5,1.5-.3,1.5-.2h1.7l1.9.2,2.1.5,2.3.7,2.4,1,2.4,1.3,2.2,1.6,4.2,3.8,3.6,4.2.8,1M200.85,312.2l.5-1,.8-1.2.3-.4.4-.4.5-.6.7-.6.6-.5.7-.4,1.4-.6,1.4-.4,1.6-.3,1.4-.2h1.7l1.9.2,2.1.5,2.3.7,2.4,1,2.4,1.3,2.2,1.6,4.2,3.8,3.7,4.2.7,1m48.4-167.6-.1.2-.8,1.2-.3.4-.4.4-.5.6-.7.6-.6.4-.7.5-1.4.6-1.4.4-1.5.3-1.5.2h-1.7l-1.9-.2-2.1-.5-2.3-.7-2.4-1-2.4-1.3-2.2-1.6-4.2-3.8-3.6-4.2-.3-.3M203,291.1l-.1.3-.8,1.1-.3.4-.3.5-.6.6-.6.6-.7.4-.7.4-1.4.6-1.4.5-1.5.3-1.5.1h-1.7l-1.9-.2-2.1-.4-2.3-.7-2.4-1-2.3-1.4-2.3-1.5-4.2-3.8-3.6-4.2-.3-.4m-47.1-131.1-.2.3-.8,1.2-.3.4-.3.4-.6.6-.6.6-.7.4-.7.5-1.3.6-1.4.4-1.6.3-1.5.2h-1.6l-2-.2-2.1-.5-2.2-.7-2.4-1-2.4-1.3-2.3-1.6-4.2-3.8-3.6-4.2-.3-.3m-46.7-39-.5,1-.8,1.2-.3.4-.4.4-.5.7-.7.5-.6.5-.7.4-1.4.6-1.4.4-1.5.3-1.5.2h-1.7l-1.9-.2-2.1-.5-2.3-.7-2.4-1L20,108.4l-2.2-1.6-4.2-3.7L10,98.8l-.8-1m31.4,29.5.5-1,.8-1.1.3-.4.3-.5.6-.6.6-.5.7-.5.7-.4,1.4-.6,1.4-.5,1.5-.3,1.5-.1h1.7l1.9.2,2.1.4,2.3.7,2.4,1,2.4,1.4,2.2,1.5,4.2,3.8,3.6,4.2m127.2-6.7.6-1,.7-1.1.4-.4.3-.5.6-.6.6-.5.6-.5.8-.4,1.3-.6,1.4-.5,1.6-.3,1.4-.1h1.7l2,.2,2.1.4,2.2.7,2.4,1,2.4,1.4,2.3,1.5,4.2,3.8,3.6,4.2m-30.6-28.5-.6,1-.8,1.2-.3.4-.3.4-.6.7-.6.5-.7.5-.7.4-1.3.6-1.4.4-1.6.3-1.5.2h-1.6l-2-.2-2.1-.5-2.3-.7-2.3-1-2.4-1.3-2.3-1.6-4.2-3.7-3.6-4.3-.7-.9m-48.9,168.3.6-1,.8-1.2.3-.4.3-.4.6-.6.6-.6.7-.4.7-.5,1.4-.6,1.4-.4,1.5-.3,1.5-.2h1.7l1.9.2,2.1.5,2.3.7,2.4,1,2.3,1.3,2.3,1.6,4.2,3.8,3.6,4.2m-30.7-28.4-.5.9-.7,1.2-.3.4-.4.4-.6.6-.6.6-.6.4-.8.4-1.3.6-1.4.5-1.6.3-1.4.2h-1.7l-1.9-.2-2.1-.5-2.3-.7-2.4-1-2.4-1.3-2.3-1.6-4.2-3.8-3.6-4.2-.7-.9M292,112h-1.1l-1.5-.1-.8-.1-.7-.2-1-.4-1.4-.9-1.7-1.4-1.9-2.1-1.4-2.2-.8-1.6-.7-1.8-.5-2-.3-1.8-.2-1.6V94.2l.1-2,.3-2.6.8-3.5.7-2.2,1.1-2.7.8-1.8m-9.3,41.2h1.2l1.4.1.8.2.8.2.9.4,1.4.8,1.7,1.5,1.9,2,1.5,2.3.7,1.6.7,1.7.5,2,.4,1.9.1,1.6v3.6l-.4,2.6-.8,3.5-.7,2.2-1,2.7-.6,1.3M131.55,112h-1.1l-1.4-.1-.8-.1-.8-.2-.9-.4-1.4-.9-1.7-1.4-1.9-2.1-1.5-2.2-.8-1.6-.6-1.8-.6-2-.3-1.8-.1-1.6-.1-1.6.1-2,.4-2.6.8-3.5.7-2.2,1-2.7.8-1.8m-9.2,41.2h1.1l1.4.1.8.2.8.2,1,.4,1.3.8,1.8,1.5,1.9,2,1.4,2.3.8,1.6.6,1.7.6,2,.3,1.9.2,1.6v1.6l-.1,2-.3,2.6-.8,3.5-.8,2.2-1,2.7-.6,1.3m89.1,98.1h-1l-1.4-.1-.8-.1-.8-.2-1-.5-1.3-.8-1.8-1.4-1.8-2.1-1.5-2.2-.8-1.6-.6-1.8-.6-2-.3-1.9-.1-1.5-.1-1.7.1-2,.3-2.6.8-3.4.8-2.3,1-2.6.7-1.6m-9.2,41h1.2l1.4.1.8.1.8.3,1,.4,1.3.8,1.7,1.4,1.9,2.1,1.5,2.2.8,1.6.6,1.8.6,2,.3,1.9.1,1.5.1,1.7-.1,2-.4,2.6-.8,3.4-.7,2.3-1,2.6-.6,1.3M162,324.5h0m-8.8-52.9v.1l.8,1.4.6,1.5.3,1.6.1,1.8-.1,1.6-.2,1.4-.3,1.5-.7,1.7-1,1.9-1.4,1.7-1.5,1.5-1.7,1.4-2.4,1.6-2.3,1.4-2.7,1.2-2.1.8-2.1.6-2.2.5-2.5.4-1.6.1m121-150.9h0l-.8-1.5-.6-1.4-.3-1.7-.1-1.8.1-1.6.2-1.4.3-1.5.6-1.7,1.1-1.8,1.4-1.7,1.5-1.6,1.7-1.4,2.3-1.6,2.4-1.4,2.7-1.2,2.1-.8,2.1-.6,2.2-.5,2.5-.4,1.5-.1m-103,164.6-.1-.1-.8-1.4-.6-1.5-.3-1.6-.1-1.8.1-1.6.2-1.4.4-1.5.6-1.7,1-1.9,1.4-1.7,1.5-1.5,1.7-1.4,2.4-1.6,2.3-1.4,2.7-1.2,2.2-.8,2.1-.6,2.1-.5,2.5-.4,1.5-.1M73,132.8h0l.8,1.4.6,1.5.4,1.7v1.7l-.1,1.6-.2,1.4-.3,1.5-.6,1.8-1.1,1.8-1.4,1.7-1.5,1.5-1.7,1.4-2.3,1.6-2.4,1.4-2.7,1.2-2.1.8-2.1.6-2.2.5-2.5.4-1.6.2m40.2-13.3-.2-.3-.6-1.4-.3-1.7L89,140l.1-1.6.2-1.4.4-1.5.6-1.7,1-1.8,1.4-1.7,1.6-1.6,1.6-1.4,2.4-1.6,2.4-1.4,2.7-1.2,2.1-.8,2.1-.6,2.2-.5,2.4-.4,1.5-.1m18,83.9h-1.2l-1.4-.1-.8-.1-.8-.2-.9-.5-1.4-.8-1.7-1.4-1.9-2.1-1.5-2.2-.8-1.6-.6-1.8-.6-2-.3-1.9-.1-1.5-.1-1.7.1-2,.4-2.6.8-3.4.7-2.3,1-2.6.2-.3m112.6-40.7h0l.8,1.4.6,1.5.3,1.7.1,1.7-.1,1.6-.2,1.4-.4,1.5-.6,1.8-1,1.8-1.4,1.7-1.6,1.5-1.6,1.4-2.4,1.6-2.4,1.4-2.6,1.2-2.2.8-2.1.6-2.2.5-2.4.4-.9.1m-98.9,54.8h1.1l1.4.1.8.1.8.3,1,.4,1.3.8,1.8,1.4,1.9,2.1,1.4,2.3.8,1.6.6,1.7.6,2,.3,1.9.2,1.5v1.7l-.1,2-.3,2.6-.8,3.4-.8,2.3-1,2.6-.8,1.8m78.4-26,.6-1.2.8-1.2.3-.4.4-.4.5-.6.7-.6.6-.4.7-.5,1.4-.6,1.4-.4,1.6-.3,1.4-.2h1.7l1.9.2,2.1.5,2.3.7,2.4,1,2.4,1.3,2.2,1.6,4.2,3.8,3.7,4.2.7,1m-31.7-28.8-.2.3-.8,1.2-.3.4-.3.4-.6.6-.6.6-.7.4-.7.4-1.4.6-1.4.5-1.5.3-1.5.2h-1.7l-1.9-.2-2.1-.5-2.3-.7-2.4-1-2.3-1.3-2.3-1.6-4.2-3.8-3.6-4.2-.3-.3m-46.7-39-.6,1L122,154l-.3.4-.4.4-.6.6-.6.6-.6.4-.8.5-1.3.6-1.4.4-1.6.3-1.4.2h-1.7l-1.9-.2-2.1-.5L105,157l-2.4-1-2.4-1.3-2.3-1.6-4.2-3.8-3.6-4.2-.7-.9m31.3,29.4.6-1,.8-1.2.3-.4.3-.4.6-.6.6-.6.7-.4.7-.4,1.4-.6,1.4-.5,1.5-.3,1.5-.2h1.7l1.9.3,2.1.4,2.3.7,2.4,1,2.3,1.3,2.3,1.6,4.2,3.8,3.6,4.2m57.8-22h-1l-1.4-.1-.8-.1-.8-.2-1-.5-1.3-.8-1.8-1.4-1.8-2.1-1.5-2.2-.8-1.6-.6-1.8-.6-2-.3-1.8-.1-1.6-.1-1.7.1-2,.3-2.5.8-3.5.8-2.2,1-2.7.8-1.8m-9.3,41.2h1.2l1.4.1.8.1.8.3,1,.4,1.3.8,1.7,1.5,1.9,2,1.5,2.3.8,1.6.6,1.7.6,2,.3,1.9.1,1.5.1,1.7-.1,2-.4,2.6-.8,3.4-.7,2.3-1,2.7-.6,1.3M162,232h0m-8.8-53v.1l.8,1.4.6,1.5.3,1.6.1,1.8-.1,1.6-.2,1.4-.3,1.5-.7,1.7-1,1.9-1.4,1.7-1.5,1.5-1.7,1.4-2.4,1.6-2.3,1.4-2.7,1.2-2.1.8-2.1.6-2.2.5-2.5.4-1.6.2m40.9-12.1-.1-.1-.8-1.4-.6-1.5-.3-1.6-.1-1.8.1-1.6.2-1.4.4-1.5.6-1.7,1-1.9,1.4-1.7,1.5-1.5,1.7-1.4,2.4-1.6,2.3-1.4,2.7-1.2,2.2-.8,2.1-.6,2.1-.5,2.5-.4,1.5-.1" transform="translate(-0.2 0.35)"/></svg>